<svg xmlns="http://www.w3.org/2000/svg" viewBox="0 0 140 45"><rect fill="#fff" width="139" height="44" x=".5" y=".5" rx="3.5" ry="3.5"/><rect fill="none" width="139" height="44" x=".5" y=".5" stroke="#0093ff" rx="3.5" ry="3.5"/><path d="M3 7h32v32H3z" fill="none"/><path d="M37.41 23.34c0-1.24-.1-2.15-.32-3.09h-14.2v5.61h8.33c-.17 1.39-1.08 3.5-3.09 4.91l-.03.19 4.49 3.48.31.03c2.86-2.64 4.5-6.52 4.5-11.12" fill="#4285f4"/><path d="M22.89 38.12c4.08 0 7.51-1.34 10.02-3.66l-4.77-3.7c-1.28.89-2.99 1.51-5.24 1.51-4 0-7.39-2.64-8.6-6.28l-.18.02-4.67 3.61-.06.17c2.49 4.94 7.6 8.33 13.51 8.33" fill="#34a853"/><path d="M14.29 25.99c-.32-.94-.5-1.95-.5-2.99s.18-2.05.49-2.99v-.2l-4.74-3.67-.15.07C8.37 18.26 7.78 20.56 7.78 23s.59 4.74 1.61 6.79l4.91-3.8" fill="#fbbc05"/><path d="M22.89 13.72c2.84 0 4.76 1.23 5.85 2.25l4.27-4.17c-2.62-2.44-6.03-3.93-10.12-3.93-5.92 0-11.02 3.39-13.51 8.33l4.89 3.8c1.23-3.65 4.62-6.28 8.62-6.28" fill="#eb4335"/><text fill="#0093ff" font-family="Helvetica" font-size="9" transform="translate(45.65 20.51)"><tspan x="0" y="0">Add us as a p</tspan><tspan x="53.98" y="0" letter-spacing="-.02em">r</tspan><tspan x="56.65" y="0" letter-spacing="0">efer</tspan><tspan x="71.15" y="0" letter-spacing="-.02em">r</tspan><tspan x="73.82" y="0">ed</tspan><tspan x="0" y="10.8">sou</tspan><tspan x="14.16" y="10.8" letter-spacing="-.02em">r</tspan><tspan x="16.83" y="10.8" letter-spacing="0">ce on Google</tspan></text><path d="M113.67 23.71h10.38v10.38h-10.38V23.71Z" fill="none"/><path d="m117.53 26.66 2.32 2.33-2.32 2.32m2.32-4.65 2.33 2.33-2.33 2.32" fill="none" stroke="#0093ff" stroke-miterlimit="1.5" stroke-width=".38"/></svg>