<?xml version="1.0" encoding="utf-8"?>
<!DOCTYPE svg PUBLIC "-//W3C//DTD SVG 1.1//EN" "http://www.w3.org/Graphics/SVG/1.1/DTD/svg11.dtd">
<svg xmlns="http://www.w3.org/2000/svg" xmlns:xlink="http://www.w3.org/1999/xlink" width="200" height="43" viewBox="0 0 1795 386" aria-label="STYLECNC" xml:space="preserve"><title>STYLECNC</title><defs><style>.a{fill:#db3700}.b{fill:#025}</style></defs><path d="M1680 55.4v-4.6c.1-4 3.1-6.8 7.2-6.9h5.4a6.5 6.5 0 0 0 5.9-4 5.8 5.8 0 0 0-1.2-6.7c-1-1.1-2.1-2.1-3.2-3.1a7 7 0 0 1 0-10.4l6.2-6c3.6-3.2 8-3.1 11.5.1 1 .9 1.9 1.9 2.9 2.7a6.7 6.7 0 0 0 11.2-4.6V8.4c0-5.1 2.9-8.1 8.2-8.3 2.6-.1 5.3-.1 7.9 0 4.8.2 7.9 3.3 7.9 8v4a6.1 6.1 0 0 0 4.2 5.6 6.3 6.3 0 0 0 7-1.1c1.1-.9 2-1.9 3-2.8 3.5-3.2 7.9-3.3 11.4 0s4.2 3.8 6.2 5.8 3.1 7.4 0 10.5c-1.1 1.1-2.2 2-3.2 3.1a5.8 5.8 0 0 0-1.2 6.8 6.4 6.4 0 0 0 5.8 3.9h4.6c4.2.1 7.1 2.8 7.2 6.9s.1 6 .1 9-3.1 7.1-7.6 7.2h-3.9a6.2 6.2 0 0 0-6.2 3.9 5.7 5.7 0 0 0 1.3 7l3.5 3.3a6.9 6.9 0 0 1 0 9.5 96.9 96.9 0 0 1-7.3 7 7.8 7.8 0 0 1-10.5-.4l-2.8-2.6a6.7 6.7 0 0 0-7.5-1.5 6.2 6.2 0 0 0-4.1 6.2 32 32 0 0 1-.1 4.4c-.4 4.1-3.2 6.7-7.6 6.9a53.6 53.6 0 0 1-9.8-.1 7.4 7.4 0 0 1-6.5-6.8v-4.6a6.1 6.1 0 0 0-4.3-6 6.5 6.5 0 0 0-7.4 1.5l-2.9 2.6a7.8 7.8 0 0 1-10.8 0l-6.6-6.3a6.9 6.9 0 0 1 0-10.1l3.3-3.1c1.9-2.1 2.4-4.4 1.2-6.9a6.1 6.1 0 0 0-6-3.9c-1.7-.1-3.3 0-4.9 0-4.4-.1-7.3-2.8-7.5-7-.1-1.6 0-3.1 0-4.6Zm57.7 35.5c20.1 0 36.5-15.8 36.5-35.1s-16.4-35.3-36.5-35.3-36.7 15.8-36.7 35.2 16.4 35.2 36.7 35.2ZM1704 152.9s-7.1-33.8-28.4-47.6c0 0-21.9-20-70.9-20h-471.4s-50.7-2.6-78 27.5c0 0-25.1 21.8-26.2 75.4 0 0-2.2 46.2 14.4 73.7 0 0 18.1 43.4 86.1 43.7H1605s53.9 2.7 81.2-29.9c0 0 15.4-17.5 19-45.1 0 0 4.7-38.8-1.2-77.7Zm-559.3-29.4c-16.5 0-24.8 7.9-24.8 23.8v95.5c0 15.9 8.3 23.9 24.8 23.9s24.9-8 24.9-23.9V207h74.4q0 83.6-99.3 83.5t-99.2-95.4q0-95.6 99.2-95.5t99.3 83.5h-74.4v-35.8c0-15.9-8.3-23.8-24.9-23.8Zm322.7 167h-74.5l-49.6-143.2v143.2h-74.5V99.6h74.5l49.6 143.2V99.6h74.5Zm124.1-167c-16.6 0-24.8 7.9-24.8 23.8v95.5c0 15.9 8.2 23.9 24.8 23.9s24.8-8 24.8-23.9V207h74.4q0 83.6-99.2 83.5t-99.3-95.4q0-95.6 99.3-95.5t99.2 83.5h-74.4v-35.8c0-15.9-8.3-23.8-24.8-23.8Z" class="a"/><path d="M0 227.2h74.5c0 26.6 8.2 39.8 24.8 39.8s24.8-7.9 24.8-23.8v-12c0-15.9-8.3-23.8-24.8-23.8H74.5q-74.6 0-74.5-43.8Q0 100 99.3 100t99.3 63.6h-74.5q0-39.7-24.8-39.8c-16.6 0-24.8 8-24.8 23.9v11.9c0 15.9 8.2 23.9 24.8 23.9h24.8c49.6 0 74.5 14.6 74.5 43.7q0 63.8-99.3 63.7T0 227.2ZM260.6 123.8H211V100h173.7v23.8h-49.6v167.1h-74.5ZM471.6 100v143.2c0 15.9 8.2 23.8 24.8 23.8s24.8-7.9 24.8-23.8V100h74.5v119.3q0 71.5-62.1 71.6v47.7h-74.5v-47.7q-62 0-62-71.6V100ZM620.5 100h74.4v167h99.3v23.9H620.5ZM905.9 100q99.3 0 99.3 83.5v23.9H881.1v35.8c0 15.9 8.2 23.8 24.8 23.8s24.8-7.9 24.8-23.8v-23.9h74.5q0 71.5-99.3 71.6t-99.3-95.5q0-95.4 99.3-95.4Zm24.8 83.5v-35.8c0-15.9-8.3-23.9-24.8-23.9s-24.8 8-24.8 23.9v35.8Z" class="b"/><path d="M1098.8 368.4h20.7c0 7.3 2.3 11 6.8 11s6.9-2.2 6.9-6.6v-3.3q0-6.6-6.9-6.6h-6.8c-13.8 0-20.7-4.1-20.7-12.1 0-11.8 9.2-17.7 27.5-17.7s27.5 5.9 27.5 17.7h-20.6q0-11.1-6.9-11.1c-4.5 0-6.8 2.2-6.8 6.6v3.3c0 4.5 2.3 6.7 6.8 6.7h6.9c13.8 0 20.6 4 20.6 12.1 0 11.7-9.1 17.6-27.5 17.6s-27.5-5.9-27.5-17.6ZM1160.7 333.1h20.6V386h-20.6ZM1188.2 333.1h20.6l13.8 39.7v-39.7h20.6V386h-20.6l-13.8-39.7V386h-20.6ZM1305 356.3h-20.6v-10q0-6.6-6.9-6.6c-4.5 0-6.8 2.2-6.8 6.6v26.5c0 4.4 2.3 6.6 6.8 6.6s6.9-2.2 6.9-6.6v-9.9h20.6c0 15.4-9.1 23.1-27.5 23.1s-27.5-8.8-27.5-26.4 9.2-26.5 27.5-26.5 27.5 7.7 27.5 23.2ZM1339.4 333.1c18.3 0 27.5 7.7 27.5 23.2v6.6h-34.4v9.9q0 6.6 6.9 6.6t6.9-6.6v-6.6h20.6c0 13.2-9.2 19.8-27.5 19.8s-27.5-8.8-27.5-26.4 9.2-26.5 27.5-26.5Zm6.9 23.2v-10q0-6.6-6.9-6.6t-6.9 6.6v10ZM1391.6 379.4l30.5-20.4a6.6 6.6 0 0 0 3.9-6v-6.7q0-6.6-6.9-6.6t-6.9 6.6v6.7h-20.6c0-13.3 9.2-19.9 27.5-19.9s27.5 5.5 27.5 16.5a13.3 13.3 0 0 1-5 10.8l-28.7 19h33.7v6.6h-55ZM1481 333.1c18.3 0 27.5 8.8 27.5 26.5s-9.2 26.4-27.5 26.4-27.5-8.8-27.5-26.4 9.2-26.5 27.5-26.5Zm0 46.3q6.9 0 6.9-6.6v-26.5q0-6.6-6.9-6.6t-6.9 6.6v26.5q0 6.6 6.9 6.6ZM1542.8 333.1c18.4 0 27.5 8.8 27.5 26.5s-9.1 26.4-27.5 26.4-27.5-8.8-27.5-26.4 9.2-26.5 27.5-26.5Zm0 46.3q6.9 0 6.9-6.6v-26.5q0-6.6-6.9-6.6c-4.5 0-6.8 2.2-6.8 6.6v26.5c0 4.4 2.3 6.6 6.8 6.6ZM1604.7 386c-18.3 0-27.5-6.6-27.5-19.8h20.6v6.6q0 6.6 6.9 6.6t6.9-6.6v-3.3q0-6.6-6.9-6.6h-15.4v-6.6h15.4c4.6 0 6.9-2.2 6.9-6.7v-3.3q0-6.6-6.9-6.6t-6.9 6.6v6.7h-20.6c0-13.3 9.2-19.9 27.5-19.9s27.5 4.4 27.5 13.2-6.9 13.3-20.6 13.3c13.7 0 20.6 4.4 20.6 13.2s-9.2 13.2-27.5 13.2ZM1719.1 37.7h13.7v4.4c0-2.9 3.1-4.4 9.2-4.4 9.1 0 13.7 3.5 13.7 10.6 0 4.7-4.6 7.1-13.7 7.1 9.1 0 13.7 2.2 13.7 6.6v11H1742V62c0-3-1.6-4.4-4.6-4.4h-4.6V73h-13.7Zm18.3 15.5c3 0 4.6-1.5 4.6-4.4v-2.2c0-3-1.6-4.5-4.6-4.5s-4.6 1.5-4.6 4.5v6.6Z" class="a"/></svg>