<svg xmlns="http://www.w3.org/2000/svg" viewBox="0 0 140 45"><rect fill="#fff" width="139" height="44" x=".5" y=".5" rx="3.5" ry="3.5"/><rect fill="none" width="139" height="44" x=".5" y=".5" stroke="#0093ff" rx="3.5" ry="3.5"/><path d="M3 7h32v32H3zm110.67 16.71h10.38v10.38h-10.38V23.71Z" fill="none"/><path d="M57.57 16.42c-1.01-.7-2.33-1.04-3.96-1.04H47.3c-.5 0-.78.25-.83.75l-2.56 16.08c-.03.16.01.3.12.43.1.13.24.2.39.2h3c.53 0 .81-.25.87-.75l.71-4.34c.03-.21.12-.38.28-.51s.35-.22.59-.26c.24-.04.46-.06.67-.06s.46.01.75.04.47.04.55.04c2.26 0 4.03-.64 5.32-1.91s1.93-3.04 1.93-5.3c0-1.55-.51-2.67-1.52-3.37Zm-3.25 4.83c-.13.92-.47 1.52-1.02 1.81-.55.29-1.34.43-2.36.43l-1.3.04.67-4.22c.05-.29.22-.43.51-.43h.75c1.05 0 1.81.15 2.29.45.47.3.63.94.47 1.91Z" fill="#003087"/><path d="M124.14 15.38h-2.92c-.29 0-.46.14-.51.43l-2.56 16.4-.04.08c0 .13.05.26.16.37.1.12.24.18.39.18h2.6c.5 0 .77-.25.83-.75l2.56-16.12v-.04c0-.37-.17-.55-.51-.55Z" fill="#009cde"/><path d="M88.89 21.73c0-.13-.05-.26-.16-.37-.11-.12-.22-.18-.35-.18h-3.04c-.29 0-.53.13-.71.39l-4.18 6.15-1.73-5.91c-.13-.42-.42-.63-.87-.63h-2.96a.45.45 0 0 0-.35.18c-.11.12-.16.24-.16.37 0 .05.26.83.77 2.33s1.06 3.11 1.66 4.85c.59 1.73.9 2.66.93 2.76-2.15 2.94-3.23 4.52-3.23 4.73 0 .34.17.51.51.51h3.04c.29 0 .53-.13.71-.39l10.05-14.51c.05-.05.08-.14.08-.28Z" fill="#003087"/><path d="M117.16 21.18h-3c-.37 0-.59.43-.67 1.3-.68-1.05-1.93-1.58-3.75-1.58s-3.5.71-4.83 2.13-1.99 3.09-1.99 5.01c0 1.55.45 2.79 1.36 3.71.91.92 2.12 1.38 3.65 1.38.76 0 1.54-.16 2.32-.47.79-.31 1.41-.74 1.85-1.26 0 .03-.03.14-.08.35-.05.21-.08.37-.08.47 0 .42.17.63.51.63h2.72c.5 0 .79-.25.87-.75l1.62-10.29c.03-.16-.01-.3-.12-.43s-.24-.2-.39-.2Zm-5.15 7.76c-.67.66-1.48.99-2.42.99-.76 0-1.38-.21-1.85-.63-.47-.42-.71-1-.71-1.73 0-.97.33-1.79.99-2.46s1.47-1.01 2.44-1.01c.74 0 1.35.22 1.83.65.49.43.73 1.03.73 1.79 0 .95-.33 1.75-1.01 2.4Z" fill="#009cde"/><path d="M72.38 21.18h-3c-.37 0-.59.43-.67 1.3-.71-1.05-1.96-1.58-3.75-1.58-1.89 0-3.5.71-4.83 2.13s-1.99 3.09-1.99 5.01c0 1.55.45 2.79 1.36 3.71.91.92 2.12 1.38 3.65 1.38.74 0 1.5-.16 2.29-.47.79-.31 1.42-.74 1.89-1.26-.11.31-.16.59-.16.83 0 .42.17.63.51.63h2.72c.5 0 .79-.25.87-.75l1.62-10.29c.03-.16-.01-.3-.12-.43s-.24-.2-.39-.2Zm-5.15 7.78c-.67.64-1.49.97-2.46.97-.76 0-1.37-.21-1.83-.63-.46-.42-.69-1-.69-1.73 0-.97.33-1.79.99-2.46.66-.67 1.47-1.01 2.44-1.01.74 0 1.35.22 1.83.65.49.43.73 1.03.73 1.79 0 .97-.33 1.78-1.01 2.42Z" fill="#003087"/><path d="M102.36 16.42c-1.01-.7-2.33-1.04-3.96-1.04h-6.27c-.53 0-.82.25-.87.75L88.7 32.21c-.03.16.01.3.12.43.1.13.24.2.39.2h3.23c.31 0 .53-.17.63-.51l.71-4.57c.03-.21.12-.38.28-.51s.35-.22.59-.26c.24-.04.46-.06.67-.06s.46.01.75.04.47.04.55.04c2.26 0 4.03-.64 5.32-1.91s1.93-3.04 1.93-5.3c0-1.55-.51-2.67-1.52-3.37Zm-4.04 6.49c-.58.39-1.45.59-2.6.59l-1.26.04.67-4.22c.05-.29.22-.43.51-.43h.71c.58 0 1.04.03 1.38.08.34.05.67.22.99.49.32.28.47.68.47 1.2 0 1.1-.29 1.85-.87 2.25Z" fill="#009cde"/><path d="M37.91 17.07 21.89 34.55h-5.88c-.41 0-.73-.41-.65-.82l3.92-24.81c.08-.57.57-.98 1.14-.98h9.96c6.85.24 8.73 3.75 7.51 9.14l.02-.02Z" fill="#003087"/><path d="M38.17 15.46c2.45 1.31 3.02 3.75 2.2 7.02-1.06 4.81-4.24 6.85-8.9 6.94l-1.31.08c-.49 0-.82.33-.9.82l-1.06 6.45c-.08.57-.57.98-1.14.98h-4.9c-.41 0-.73-.41-.65-.82l1.8-11.67c.08-.41 14.85-9.79 14.85-9.79Z" fill="#009cde"/><path d="m23.22 25.82 1.63-10.36c.11-.5.54-.87 1.06-.9h7.83c1.88 0 3.26.33 4.41.9-.41 3.59-2.12 9.38-10.45 9.55h-3.59c-.41 0-.82.33-.9.82Z" fill="#001f6b"/></svg>