<?xml version="1.0" encoding="utf-8"?>
<!DOCTYPE svg PUBLIC "-//W3C//DTD SVG 1.1//EN" "http://www.w3.org/Graphics/SVG/1.1/DTD/svg11.dtd">
<svg xmlns="http://www.w3.org/2000/svg" xmlns:xlink="http://www.w3.org/1999/xlink" width="120" height="97" viewBox="0 0 120 97" aria-label="Get A Quote" xml:space="preserve"><title>Get A Quote</title><defs><style>.a{fill:#025}.a,.b,.c{stroke-width:0}.d{stroke:#db3700;stroke-width:1.8px}.c,.d{fill:#fff}.e{fill:none;stroke:#fff;stroke-linecap:round}.b{fill:#db3700}</style></defs><rect width="91.17" height="77.51" x="14.18" y="19.49" class="a" rx="17.37" ry="17.37"/><rect width="78.99" height="33.69" x="20.37" y="29.85" class="c" rx="8.54" ry="8.54"/><path d="M59.78 91.81c5.96 0 11.15-4.05 12.62-9.82.25-1-.34-2.01-1.33-2.28a1.6 1.6 0 0 0-.48-.05H48.96c-1.03.02-1.85.85-1.87 1.88 0 .15.02.3.05.45 1.48 5.77 6.68 9.81 12.64 9.82" class="c"/><path d="M119.74 51.93c0-5.96-4.05-11.15-9.82-12.62-1-.25-2.01.34-2.28 1.33-.04.15-.06.31-.05.47v21.63c0 1.02.82 1.86 1.84 1.87h.03c.16 0 .31-.02.47-.05 5.77-1.48 9.81-6.67 9.82-12.62ZM9.82 39.31C2.85 41.08-1.37 48.16.4 55.14c1.17 4.63 4.79 8.25 9.42 9.42.99.26 2.01-.33 2.28-1.32.04-.16.06-.33.07-.49V41.12a1.874 1.874 0 0 0-1.89-1.85c-.15 0-.31.02-.45.05ZM41.8 1.87c.36 0 .72.04 1.07.12.36.09.7.21 1.04.36l.96-1.6c-2.27-1.17-5-.95-7.05.56l1.2 1.44c.82-.57 1.79-.88 2.79-.88zm-.69 4.93c0 .41.32.75.73.76.43.04.8-.27.85-.69a.76.76 0 0 0-.85-.84c-.41 0-.75.33-.75.75v.03h.01Zm.39-.08c.03-.24.25-.41.49-.39.24.03.41.25.39.49s0 .03 0 .04c-.03.19-.17.33-.36.36h-.15a.44.44 0 0 1-.36-.51Zm4.09-5.55-.95 1.61a4.85 4.85 0 0 1 1.89 5.01c-.12.56-.34 1.1-.65 1.59l1.47 1.15c.49-.69.83-1.48 1.01-2.31.61-2.7-.49-5.49-2.77-7.05" class="a"/><path d="M41.85 3.47c-1.81 0-3.27 1.48-3.27 3.29s1.48 3.27 3.29 3.27 3.27-1.48 3.27-3.29-1.47-3.26-3.27-3.27h-.03Zm1.14 3.3v.03c0 .62-.51 1.11-1.13 1.11s-1.11-.51-1.11-1.13.5-1.12 1.12-1.12 1.12.5 1.12 1.12Z" class="a"/><path d="M44.83 10.56c-.87.67-1.93 1.04-3.03 1.05-.36 0-.73-.04-1.08-.13a4.9 4.9 0 0 1-3.75-5.4l-1.81-.41a6.72 6.72 0 0 0 3.68 7.12v4.64h5.92v-4.64c.79-.39 1.49-.93 2.08-1.59l-1.48-1.15zm-6.47-7.27-1.19-1.44a6.54 6.54 0 0 0-1.83 2.99l1.81.43c.24-.74.65-1.42 1.2-1.97Zm38.43 4.33a.8.8 0 0 0 .79-.76.767.767 0 0 0-.73-.79h-.06c-.41.01-.75.35-.76.76 0 .43.33.78.76.79m-.36-.85c.03-.19.17-.33.36-.36.24.03.4.25.37.49-.04.19-.19.33-.37.37a.464.464 0 0 1-.36-.51Zm.3-4.84c.36 0 .72.04 1.08.11.36.08.71.2 1.04.37L79.81.8q-.75-.39-1.59-.57c-1.9-.43-3.9-.01-5.47 1.15l1.2 1.43a5 5 0 0 1 2.77-.87h.01Z" class="a"/><path d="M76.79 3.52c-1.8 0-3.27 1.46-3.27 3.27s1.47 3.28 3.28 3.28 3.28-1.47 3.28-3.28-1.47-3.28-3.28-3.28h-.01Zm1.14 3.32c.07.62-.38 1.17-1 1.24s-1.17-.38-1.24-1v-.24c0-.62.49-1.12 1.11-1.13.62 0 1.12.49 1.13 1.11z" class="a"/><path d="M80.55 1.25h-.03l-.95 1.6a4.92 4.92 0 0 1 1.24 6.61l1.48 1.15a6.703 6.703 0 0 0-1.72-9.34h-.03v-.02Zm-.8 9.36c-.86.68-1.92 1.04-3.01 1.04-.36 0-.72-.04-1.08-.11a4.91 4.91 0 0 1-3.75-5.41l-1.83-.41a6.72 6.72 0 0 0 3.68 7.1v4.6h5.93v-4.6c.43-.21.83-.46 1.21-.75.31-.25.6-.53.87-.83l-1.48-1.15c-.16.19-.35.36-.55.51h.01ZM73.3 3.35l-1.19-1.44c-.87.82-1.5 1.85-1.83 3l1.81.4c.22-.75.64-1.42 1.2-1.96z" class="a"/><circle cx="41.93" cy="47.45" r="6.71" class="d"/><path d="M41.85 43.14a4.29 4.29 0 0 0-2.52 7.76l.14 1.3 1.09-.68a4.29 4.29 0 0 0 5.58-4.09 4.29 4.29 0 0 0-4.29-4.29" class="b"/><circle cx="76.8" cy="47.37" r="6.71" class="d"/><path d="M76.79 43.05c-2.37 0-4.29 1.92-4.29 4.29a4.29 4.29 0 0 0 5.58 4.09l1.09.68.14-1.3a4.29 4.29 0 0 0-2.52-7.76" class="b"/><path d="M76.82 49.52c.71 0 1.29-.48 1.29-1.08s-.58-1.08-1.29-1.08-1.29-.48-1.29-1.08.58-1.08 1.29-1.08m0 4.32c-.71 0-1.29-.48-1.29-1.08m1.29 1.08v.43m0-5.17v.43m0 0c.71 0 1.29.48 1.29 1.08M41.94 49.73c.71 0 1.29-.48 1.29-1.08s-.58-1.08-1.29-1.08-1.29-.48-1.29-1.08.58-1.08 1.29-1.08m0 4.32c-.71 0-1.29-.48-1.29-1.08m1.29 1.08v.43m0-5.17v.43m0 0c.71 0 1.29.48 1.29 1.08" class="e"/><path d="M29.58 72.78V71.3h3.65v3.04c-.58.38-1.2.69-1.85.91-.62.17-1.26.25-1.91.24-.91 0-1.65-.15-2.23-.43-.56-.28-1.03-.73-1.32-1.29a4.26 4.26 0 0 1 .04-4c.35-.58.88-1.04 1.51-1.31.52-.23 1.21-.35 2.09-.35s1.48.07 1.89.21c.4.13.76.36 1.04.67.29.32.51.71.63 1.13l-2.28.39c-.08-.25-.25-.47-.48-.61a1.42 1.42 0 0 0-.85-.21c-.52 0-.93.16-1.24.49s-.45.87-.45 1.6.15 1.32.47 1.65.75.49 1.29.49c.26 0 .51-.04.76-.11.29-.09.56-.21.83-.36v-.68h-1.59Zm5.04-4.55h6.33v1.52h-3.96v1.13h3.67v1.45h-3.67v1.41h4.07v1.61h-6.44v-7.13Zm7.17 0h7.17v1.76h-2.4v5.37H44.2v-5.37h-2.41zm18.58 6.09.57.36.55.25-.65 1.23c-.34-.15-.67-.33-.99-.53-.24-.14-.46-.29-.67-.47-.63.23-1.29.34-1.96.32-1.16 0-2.08-.28-2.75-.84s-1.19-1.61-1.19-2.83.35-2.08 1.04-2.73 1.65-.97 2.89-.97 2.25.32 2.95.96 1.03 1.53 1.03 2.72-.28 1.89-.83 2.53Zm-1.81-1.13c.19-.31.28-.79.28-1.41s-.15-1.23-.43-1.53c-.31-.32-.74-.49-1.19-.47-.43-.01-.84.16-1.13.48-.29.31-.44.8-.44 1.47s.13 1.32.43 1.64.67.47 1.17.47c.15 0 .3-.01.45-.04-.28-.23-.6-.4-.95-.51l.37-.79c.17.02.34.06.49.13l.68.4.25.16Zm8.87-4.96h2.36v4.25c0 .4-.08.81-.21 1.19-.15.37-.37.71-.67.99-.27.27-.59.47-.95.59-.53.17-1.08.25-1.64.24-.37 0-.79-.03-1.23-.07-.38-.04-.75-.14-1.09-.29-.31-.15-.58-.36-.81-.61-.23-.24-.4-.52-.51-.83q-.195-.585-.21-1.2v-4.25h2.35v4.35c-.02.34.11.67.35.92.27.22.61.34.96.32.42 0 .74-.11.96-.32.24-.24.37-.58.35-.92v-4.35Zm3.63 3.57c0-1.16.35-2.06 1.04-2.72.69-.65 1.65-.97 2.89-.97s2.25.32 2.95.96 1.03 1.52 1.03 2.68q0 1.245-.45 2.04c-.31.53-.76.97-1.31 1.25-.56.29-1.27.44-2.12.44s-1.57-.12-2.13-.39c-.57-.25-1.05-.68-1.37-1.21-.35-.55-.52-1.25-.52-2.08Zm2.36.02c0 .72.13 1.23.43 1.55s.72.49 1.16.47c.49 0 .91-.15 1.19-.45s.41-.87.41-1.67-.15-1.16-.44-1.47c-.3-.32-.73-.49-1.17-.47-.43-.02-.85.16-1.15.48-.29.31-.43.83-.43 1.56m6-3.59h7.17v1.76h-2.4v5.37h-2.36v-5.37h-2.41zm8.23 0h6.32v1.52h-3.96v1.13h3.68v1.45h-3.68v1.41h4.08v1.61h-6.44v-7.13Z" class="c"/></svg>