<?xml version="1.0" encoding="utf-8"?>
<!DOCTYPE svg PUBLIC "-//W3C//DTD SVG 1.1//EN" "http://www.w3.org/Graphics/SVG/1.1/DTD/svg11.dtd">
<svg xmlns="http://www.w3.org/2000/svg" xmlns:xlink="http://www.w3.org/1999/xlink" width="120" height="97" viewBox="0 0 120 97" aria-label="WhatsApp" xml:space="preserve"><title>WhatsApp</title><defs><style>.a{fill:#025}.a,.b,.c{stroke-width:0}.d{stroke:#db3700;stroke-width:1.8px}.c,.d{fill:#fff}.b{fill:#db3700}</style></defs><rect width="91.17" height="77.51" x="14.18" y="19.49" class="a" rx="17.37" ry="17.37"/><rect width="78.99" height="33.69" x="20.37" y="29.85" class="c" rx="8.54" ry="8.54"/><path d="M59.78 91.81c5.96 0 11.15-4.05 12.62-9.82.25-1-.34-2.01-1.33-2.28a1.6 1.6 0 0 0-.48-.05H48.96c-1.03.02-1.85.85-1.87 1.88 0 .15.02.3.05.45 1.48 5.77 6.68 9.81 12.64 9.82" class="c"/><path d="M119.74 51.93c0-5.96-4.05-11.15-9.82-12.62-1-.25-2.01.34-2.28 1.33-.04.15-.06.31-.05.47v21.63c0 1.02.82 1.86 1.84 1.87h.03c.16 0 .31-.02.47-.05 5.77-1.48 9.81-6.67 9.82-12.62ZM9.82 39.31C2.85 41.08-1.37 48.16.4 55.14c1.17 4.63 4.79 8.25 9.42 9.42.99.26 2.01-.33 2.28-1.32.04-.16.06-.33.07-.49V41.12a1.874 1.874 0 0 0-1.89-1.85c-.15 0-.31.02-.45.05ZM41.8 1.87c.36 0 .72.04 1.07.12.36.09.7.21 1.04.36l.96-1.6c-2.27-1.17-5-.95-7.05.56l1.2 1.44c.82-.57 1.79-.88 2.79-.88zm-.69 4.93c0 .41.32.75.73.76.43.04.8-.27.85-.69a.76.76 0 0 0-.85-.84c-.41 0-.75.33-.75.75v.03h.01Zm.39-.08c.03-.24.25-.41.49-.39.24.03.41.25.39.49s0 .03 0 .04c-.03.19-.17.33-.36.36h-.15a.44.44 0 0 1-.36-.51Zm4.09-5.55-.95 1.61a4.85 4.85 0 0 1 1.89 5.01c-.12.56-.34 1.1-.65 1.59l1.47 1.15c.49-.69.83-1.48 1.01-2.31.61-2.7-.49-5.49-2.77-7.05" class="a"/><path d="M41.85 3.47c-1.81 0-3.27 1.48-3.27 3.29s1.48 3.27 3.29 3.27 3.27-1.48 3.27-3.29-1.47-3.26-3.27-3.27h-.03Zm1.14 3.3v.03c0 .62-.51 1.11-1.13 1.11s-1.11-.51-1.11-1.13.5-1.12 1.12-1.12 1.12.5 1.12 1.12Z" class="a"/><path d="M44.83 10.56c-.87.67-1.93 1.04-3.03 1.05-.36 0-.73-.04-1.08-.13a4.9 4.9 0 0 1-3.75-5.4l-1.81-.41a6.72 6.72 0 0 0 3.68 7.12v4.64h5.92v-4.64c.79-.39 1.49-.93 2.08-1.59l-1.48-1.15zm-6.47-7.27-1.19-1.44a6.54 6.54 0 0 0-1.83 2.99l1.81.43c.24-.74.65-1.42 1.2-1.97Zm38.43 4.33a.8.8 0 0 0 .79-.76.767.767 0 0 0-.73-.79h-.06c-.41.01-.75.35-.76.76 0 .43.33.78.76.79m-.36-.85c.03-.19.17-.33.36-.36.24.03.4.25.37.49-.04.19-.19.33-.37.37a.464.464 0 0 1-.36-.51Zm.3-4.84c.36 0 .72.04 1.08.11.36.08.71.2 1.04.37L79.81.8q-.75-.39-1.59-.57c-1.9-.43-3.9-.01-5.47 1.15l1.2 1.43a5 5 0 0 1 2.77-.87h.01Z" class="a"/><path d="M76.79 3.52c-1.8 0-3.27 1.46-3.27 3.27s1.47 3.28 3.28 3.28 3.28-1.47 3.28-3.28-1.47-3.28-3.28-3.28h-.01Zm1.14 3.32c.07.62-.38 1.17-1 1.24s-1.17-.38-1.24-1v-.24c0-.62.49-1.12 1.11-1.13.62 0 1.12.49 1.13 1.11z" class="a"/><path d="M80.55 1.25h-.03l-.95 1.6a4.92 4.92 0 0 1 1.24 6.61l1.48 1.15a6.703 6.703 0 0 0-1.72-9.34h-.03v-.02Zm-.8 9.36c-.86.68-1.92 1.04-3.01 1.04-.36 0-.72-.04-1.08-.11a4.91 4.91 0 0 1-3.75-5.41l-1.83-.41a6.72 6.72 0 0 0 3.68 7.1v4.6h5.93v-4.6c.43-.21.83-.46 1.21-.75.31-.25.6-.53.87-.83l-1.48-1.15c-.16.19-.35.36-.55.51h.01ZM73.3 3.35l-1.19-1.44c-.87.82-1.5 1.85-1.83 3l1.81.4c.22-.75.64-1.42 1.2-1.96z" class="a"/><path d="M27.54 67.99h2.17l.79 4.16 1.16-4.16h2.17l1.16 4.16.79-4.16h2.17l-1.64 7.44h-2.27l-1.31-4.69-1.29 4.69h-2.25zm11.17 0H41v2.6h2.52v-2.6h2.31v7.44h-2.31v-3.01H41v3.01h-2.29zm13.22 6.22h-2.61l-.36 1.23h-2.35l2.8-7.44h2.51l2.8 7.44h-2.41l-.37-1.23Zm-.48-1.62-.81-2.68-.81 2.68h1.63Zm2.76-4.6h6.98v1.84h-2.35v5.6h-2.29v-5.6H54.2v-1.84Zm7.63 4.98 2.19-.13c.03.29.13.57.29.81.24.31.62.48 1.01.45.27.02.54-.06.76-.23.17-.13.26-.33.27-.55 0-.2-.1-.38-.25-.51-.17-.16-.56-.31-1.17-.44-1.01-.23-1.73-.52-2.16-.91-.43-.35-.67-.88-.65-1.43 0-.39.12-.77.33-1.09.25-.35.6-.63 1-.8.44-.2 1.05-.29 1.83-.29s1.68.17 2.17.53.8.92.89 1.69l-2.16.12c-.04-.28-.17-.54-.37-.73a1.22 1.22 0 0 0-.76-.23.86.86 0 0 0-.6.17c-.13.1-.2.25-.2.41 0 .13.06.24.16.32.11.09.37.19.77.27 1 .23 1.72.44 2.16.67.39.18.72.46.95.83.2.33.31.71.31 1.09 0 .47-.14.93-.4 1.32-.27.41-.65.73-1.11.92-.57.23-1.18.34-1.8.32-1.27 0-2.13-.25-2.63-.73-.49-.5-.78-1.17-.83-1.87zm12.49 1.24h-2.61l-.36 1.23H69L71.8 68h2.51l2.8 7.44h-2.4l-.37-1.23zm-.48-1.62-.83-2.68-.81 2.68zm3.97-4.6h3.83c.84 0 1.45.2 1.87.59.41.39.63.96.63 1.69s-.23 1.33-.68 1.76-1.13.64-2.07.64h-1.25v2.76h-2.32v-7.44zm2.32 3.18h.56c.44 0 .76-.08.93-.24.17-.15.27-.36.27-.59s-.08-.43-.23-.6c-.16-.16-.45-.24-.88-.24h-.65zm5.2-3.18h3.81c.84 0 1.47.2 1.88.59s.61.96.61 1.69-.23 1.33-.67 1.76-1.15.64-2.08.64h-1.25v2.76h-2.31v-7.44zm2.3 3.18h.56c.44 0 .76-.08.93-.24.18-.14.28-.36.27-.59 0-.22-.07-.44-.23-.6s-.45-.24-.88-.24h-.65z" class="c"/><circle cx="41.93" cy="47.45" r="6.71" class="d"/><path d="M41.95 43.14a4.29 4.29 0 0 0-2.52 7.76l.14 1.3 1.09-.68a4.29 4.29 0 0 0 5.58-4.09 4.29 4.29 0 0 0-4.29-4.29" class="b"/><path d="m40.88 45.69.56.56c.15.15.15.39 0 .54s-.15.39 0 .55l.83.83c.15.15.39.15.55 0a.38.38 0 0 1 .54 0l.56.56c.15.15.15.39 0 .55l-.2.2s-.12.09-.19.11a2.93 2.93 0 0 1-3.51-3.51c.02-.07.05-.14.11-.19l.2-.2a.38.38 0 0 1 .54 0Z" class="c"/><circle cx="76.82" cy="47.45" r="6.71" class="d"/><path d="M76.81 43.13c-2.37 0-4.29 1.92-4.29 4.29a4.29 4.29 0 0 0 5.58 4.09l1.09.68.14-1.3a4.29 4.29 0 0 0-2.52-7.76" class="b"/><path d="M77.87 45.69a.38.38 0 0 1 .54 0l.2.2c.05.05.09.12.11.19a2.926 2.926 0 0 1-3.51 3.51.37.37 0 0 1-.19-.11l-.2-.2a.39.39 0 0 1 0-.55l.56-.56a.38.38 0 0 1 .54 0c.15.15.39.15.55 0l.83-.83c.15-.15.15-.39 0-.55a.38.38 0 0 1 0-.54l.56-.56z" class="c"/></svg>